<svg width="375" height="812" viewBox="0 0 375 812" fill="none" xmlns="http://www.w3.org/2000/svg">
<g clip-path="url(#clip0_14_2932)">
<rect width="375" height="812" fill="white"/>
<rect width="376" height="812" fill="#7F3DFF"/>
<path d="M36.4167 17.9418C36.9387 17.9453 37.4465 18.0376 37.9401 18.2188C38.4373 18.3963 38.8847 18.6875 39.2824 19.0923C39.6802 19.4936 39.9962 20.0316 40.2306 20.7063C40.465 21.381 40.5822 22.2156 40.5822 23.2099C40.5857 24.1474 40.4863 24.9854 40.2839 25.7241C40.085 26.4592 39.7991 27.0806 39.4263 27.5884C39.0534 28.0962 38.6042 28.4833 38.0786 28.7496C37.553 29.016 36.9618 29.1491 36.3048 29.1491C35.6159 29.1491 35.0051 29.0142 34.4724 28.7443C33.9433 28.4744 33.5154 28.1051 33.1887 27.6364C32.862 27.1676 32.6614 26.6314 32.5868 26.0277H34.531C34.6305 26.4609 34.8329 26.8054 35.1383 27.0611C35.4472 27.3132 35.8361 27.4393 36.3048 27.4393C37.0612 27.4393 37.6436 27.1108 38.052 26.4538C38.4604 25.7969 38.6645 24.8842 38.6645 23.7159H38.59C38.416 24.0284 38.1905 24.2983 37.9135 24.5256C37.6365 24.7493 37.3222 24.9215 36.9707 25.0423C36.6226 25.163 36.2533 25.2234 35.8627 25.2234C35.2235 25.2234 34.6482 25.0707 34.1369 24.7653C33.629 24.4599 33.226 24.0408 32.9277 23.5082C32.6329 22.9755 32.4838 22.3665 32.4802 21.6811C32.4802 20.9709 32.6436 20.3335 32.9703 19.7688C33.3006 19.2006 33.7604 18.7532 34.3499 18.4265C34.9394 18.0962 35.6283 17.9347 36.4167 17.9418ZM36.422 19.5398C36.0385 19.5398 35.6922 19.6339 35.3833 19.8221C35.0779 20.0067 34.8364 20.2589 34.6589 20.5785C34.4849 20.8945 34.3979 21.2479 34.3979 21.6385C34.4014 22.0256 34.4884 22.3771 34.6589 22.6932C34.8329 23.0092 35.069 23.2596 35.3673 23.4442C35.6692 23.6289 36.0136 23.7212 36.4007 23.7212C36.6883 23.7212 36.9565 23.6662 37.205 23.5561C37.4536 23.446 37.6702 23.2933 37.8549 23.098C38.0431 22.8991 38.1887 22.6737 38.2917 22.4215C38.3982 22.1694 38.4497 21.9031 38.4462 21.6225C38.4462 21.2496 38.3574 20.9052 38.1798 20.5891C38.0058 20.2731 37.7661 20.0192 37.4607 19.8274C37.1589 19.6357 36.8126 19.5398 36.422 19.5398ZM43.4001 27.6896C43.077 27.6896 42.8 27.576 42.5692 27.3487C42.3383 27.1179 42.2247 26.8409 42.2282 26.5178C42.2247 26.1982 42.3383 25.9247 42.5692 25.6974C42.8 25.4702 43.077 25.3565 43.4001 25.3565C43.7126 25.3565 43.9843 25.4702 44.2151 25.6974C44.4495 25.9247 44.5684 26.1982 44.572 26.5178C44.5684 26.7344 44.5116 26.9315 44.4015 27.109C44.295 27.2866 44.153 27.4286 43.9754 27.5352C43.8014 27.6381 43.6096 27.6896 43.4001 27.6896ZM43.4001 22.283C43.077 22.283 42.8 22.1694 42.5692 21.9421C42.3383 21.7113 42.2247 21.4343 42.2282 21.1112C42.2247 20.7915 42.3383 20.5181 42.5692 20.2908C42.8 20.06 43.077 19.9446 43.4001 19.9446C43.7126 19.9446 43.9843 20.06 44.2151 20.2908C44.4495 20.5181 44.5684 20.7915 44.572 21.1112C44.5684 21.3242 44.5116 21.5195 44.4015 21.6971C44.295 21.8746 44.153 22.0167 43.9754 22.1232C43.8014 22.2298 43.6096 22.283 43.4001 22.283ZM46.1795 26.9759V25.4045L50.8084 18.0909H52.1187V20.3281H51.3197L48.2036 25.266V25.3512H54.6649V26.9759H46.1795ZM51.3836 29V26.4964L51.405 25.7933V18.0909H53.2693V29H51.3836ZM60.4924 18.0909V29H58.5162V20.0138H58.4523L55.9008 21.6438V19.8327L58.6121 18.0909H60.4924Z" fill="white"/>
<path d="M354.41 16.16C355.658 16.16 356.111 16.29 356.567 16.534C357.024 16.7781 357.382 17.1363 357.626 17.5926C357.87 18.0489 358 18.5018 358 19.7498V24.0702C358 25.3182 357.87 25.7711 357.626 26.2274C357.382 26.6837 357.024 27.0419 356.567 27.286C356.111 27.53 355.658 27.66 354.41 27.66H339.59C338.342 27.66 337.889 27.53 337.433 27.286C336.976 27.0419 336.618 26.6837 336.374 26.2274C336.13 25.7711 336 25.3182 336 24.0702V19.7498C336 18.5018 336.13 18.0489 336.374 17.5926C336.618 17.1363 336.976 16.7781 337.433 16.534C337.889 16.29 338.342 16.16 339.59 16.16H354.41ZM339.59 17.16C338.603 17.16 338.258 17.2267 337.904 17.4159C337.622 17.5667 337.407 17.7823 337.256 18.0643C337.067 18.4181 337 18.763 337 19.7498V24.0702C337 25.057 337.067 25.4019 337.256 25.7557C337.407 26.0377 337.622 26.2533 337.904 26.4041C338.258 26.5933 338.603 26.66 339.59 26.66H354.41C355.397 26.66 355.742 26.5933 356.096 26.4041C356.378 26.2533 356.593 26.0377 356.744 25.7557C356.933 25.4019 357 25.057 357 24.0702V19.7498C357 18.763 356.933 18.4181 356.744 18.0643C356.593 17.7823 356.378 17.5667 356.096 17.4159C355.742 17.2267 355.397 17.16 354.41 17.16H339.59ZM359 19.8504C359.018 19.8599 360.5 20.6215 360.5 21.8504C360.5 23.0867 359 23.8504 359 23.8504V19.8504Z" fill="white" fill-opacity="0.36"/>
<rect x="338" y="18.0767" width="18" height="7.66667" rx="1.6" fill="white"/>
<path d="M295 23.3002C295.279 23.3002 295.418 23.2996 295.534 23.3227C296.01 23.4173 296.382 23.79 296.477 24.266C296.5 24.3819 296.5 24.5214 296.5 24.8002V25.8002C296.5 26.0789 296.5 26.2185 296.477 26.3344C296.382 26.8102 296.01 27.1821 295.534 27.2768C295.418 27.2998 295.279 27.3002 295 27.3002C294.721 27.3002 294.582 27.2998 294.466 27.2768C293.99 27.1821 293.618 26.8102 293.523 26.3344C293.5 26.2185 293.5 26.0789 293.5 25.8002V24.8002C293.5 24.5214 293.5 24.3819 293.523 24.266C293.618 23.79 293.99 23.4173 294.466 23.3227C294.582 23.2996 294.721 23.3002 295 23.3002ZM299.8 21.3002C300.078 21.3002 300.218 21.2996 300.334 21.3227C300.81 21.4173 301.183 21.79 301.277 22.266C301.3 22.3819 301.3 22.5216 301.3 22.8002V25.8002C301.3 26.0789 301.3 26.2185 301.277 26.3344C301.183 26.8103 300.81 27.1821 300.334 27.2768C300.218 27.2998 300.079 27.3002 299.8 27.3002C299.521 27.3002 299.382 27.2998 299.266 27.2768C298.79 27.182 298.418 26.8102 298.323 26.3344C298.3 26.2185 298.3 26.0789 298.3 25.8002V22.8002C298.3 22.5215 298.3 22.3819 298.323 22.266C298.418 21.79 298.79 21.4174 299.266 21.3227C299.382 21.2996 299.521 21.3002 299.8 21.3002ZM304.4 19.0004C304.679 19.0004 304.819 18.9998 304.935 19.0229C305.41 19.1177 305.782 19.4903 305.877 19.9662C305.9 20.0821 305.9 20.2218 305.9 20.5004V25.8002C305.9 26.0789 305.9 26.2185 305.877 26.3344C305.782 26.8101 305.41 27.1819 304.935 27.2768C304.819 27.2998 304.679 27.3002 304.4 27.3002C304.122 27.3002 303.982 27.2998 303.866 27.2768C303.39 27.1821 303.018 26.8103 302.923 26.3344C302.9 26.2185 302.9 26.0789 302.9 25.8002V20.5004C302.9 20.2219 302.9 20.0821 302.923 19.9662C303.018 19.4902 303.39 19.1175 303.866 19.0229C303.982 18.9999 304.122 19.0004 304.4 19.0004ZM309.1 16.6C309.378 16.6 309.518 16.6004 309.634 16.6234C310.11 16.7181 310.482 17.0898 310.577 17.5658C310.6 17.6817 310.6 17.8212 310.6 18.1V25.8002C310.6 26.0789 310.6 26.2185 310.577 26.3344C310.482 26.8103 310.11 27.1821 309.634 27.2768C309.518 27.2998 309.378 27.3002 309.1 27.3002C308.821 27.3002 308.681 27.2998 308.565 27.2768C308.09 27.1819 307.718 26.8101 307.623 26.3344C307.6 26.2185 307.6 26.0789 307.6 25.8002V18.1C307.6 17.8212 307.6 17.6817 307.623 17.5658C307.718 17.09 308.09 16.7183 308.565 16.6234C308.681 16.6004 308.821 16.6 309.1 16.6Z" fill="white"/>
<path fill-rule="evenodd" clip-rule="evenodd" d="M323.3 18.6964C325.535 18.6965 327.684 19.555 329.303 21.0946C329.425 21.2134 329.62 21.2119 329.74 21.0912L330.906 19.9148C330.967 19.8536 331.001 19.7706 331 19.6843C330.999 19.598 330.965 19.5155 330.903 19.455C326.653 15.3817 319.947 15.3817 315.697 19.455C315.636 19.5155 315.601 19.598 315.6 19.6843C315.599 19.7706 315.633 19.8535 315.694 19.9148L316.86 21.0912C316.98 21.2121 317.175 21.2136 317.297 21.0946C318.917 19.5549 321.066 18.6964 323.3 18.6964ZM323.3 22.5237C324.528 22.5237 325.712 22.98 326.622 23.804C326.745 23.921 326.939 23.9184 327.059 23.7983L328.223 22.6219C328.285 22.5602 328.319 22.4765 328.318 22.3895C328.317 22.3025 328.281 22.2195 328.219 22.1591C325.447 19.5813 321.156 19.5813 318.385 22.1591C318.322 22.2195 318.286 22.3025 318.286 22.3896C318.285 22.4766 318.319 22.5603 318.38 22.6219L319.544 23.7983C319.664 23.9184 319.858 23.921 319.981 23.804C320.891 22.9805 322.074 22.5243 323.3 22.5237ZM325.538 25.3313C325.6 25.2702 325.635 25.1861 325.633 25.0989C325.631 25.0117 325.593 24.929 325.529 24.8705C324.242 23.7826 322.359 23.7826 321.072 24.8705C321.008 24.929 320.97 25.0116 320.968 25.0988C320.966 25.1861 321 25.2702 321.063 25.3313L323.077 27.3639C323.136 27.4236 323.216 27.4572 323.3 27.4572C323.384 27.4572 323.465 27.4236 323.524 27.3639L325.538 25.3313Z" fill="white"/>
<path d="M92.6072 426H101.079V407.665C101.079 404.284 103.227 402.037 106.05 402.037C108.835 402.037 110.704 403.946 110.704 406.949V426H118.917V407.347C118.917 404.185 120.727 402.037 123.809 402.037C126.513 402.037 128.542 403.727 128.542 407.128V426H136.994V405.457C136.994 398.835 133.056 395.057 127.369 395.057C122.894 395.057 119.414 397.344 118.161 400.844H117.843C116.869 397.304 113.746 395.057 109.55 395.057C105.434 395.057 102.312 397.244 101.039 400.844H100.681V395.455H92.6072V426ZM157.487 426.597C166.754 426.597 172.521 420.253 172.521 410.847C172.521 401.381 166.754 395.057 157.487 395.057C148.219 395.057 142.452 401.381 142.452 410.847C142.452 420.253 148.219 426.597 157.487 426.597ZM157.526 420.034C153.251 420.034 151.063 416.116 151.063 410.787C151.063 405.457 153.251 401.52 157.526 401.52C161.722 401.52 163.91 405.457 163.91 410.787C163.91 416.116 161.722 420.034 157.526 420.034ZM186.501 408.341C186.521 404.403 188.867 402.097 192.288 402.097C195.688 402.097 197.737 404.324 197.717 408.062V426H206.188V406.551C206.188 399.432 202.012 395.057 195.648 395.057C191.114 395.057 187.833 397.284 186.461 400.844H186.103V395.455H178.029V426H186.501V408.341ZM229.112 395.455H223.365V388.136H214.893V395.455H210.717V401.818H214.893V417.727C214.854 423.713 218.93 426.676 225.075 426.418C227.263 426.338 228.814 425.901 229.669 425.622L228.337 419.318C227.919 419.398 227.024 419.597 226.229 419.597C224.538 419.597 223.365 418.96 223.365 416.614V401.818H229.112V395.455ZM234.631 426H243.102V408.719C243.102 404.96 245.847 402.375 249.585 402.375C250.759 402.375 252.369 402.574 253.165 402.832V395.315C252.409 395.136 251.355 395.017 250.5 395.017C247.08 395.017 244.276 397.006 243.162 400.784H242.844V395.455H234.631V426ZM265.38 426.577C269.894 426.577 272.817 424.608 274.309 421.764H274.548V426H282.582V405.398C282.582 398.119 276.417 395.057 269.616 395.057C262.298 395.057 257.485 398.557 256.312 404.125L264.147 404.761C264.724 402.733 266.533 401.241 269.576 401.241C272.46 401.241 274.11 402.693 274.11 405.199V405.318C274.11 407.287 272.022 407.545 266.712 408.062C260.667 408.619 255.238 410.648 255.238 417.469C255.238 423.514 259.553 426.577 265.38 426.577ZM267.806 420.73C265.201 420.73 263.332 419.517 263.332 417.19C263.332 414.804 265.3 413.631 268.283 413.213C270.133 412.955 273.156 412.517 274.17 411.841V415.082C274.17 418.284 271.525 420.73 267.806 420.73Z" fill="white"/>
<g style="mix-blend-mode:overlay" filter="url(#filter0_f_14_2932)">
<circle cx="37" cy="37" r="37" transform="matrix(-1 0 0 1 192 374)" fill="#FCAC12"/>
</g>
<rect x="121" y="799" width="134" height="5" rx="2.5" fill="white"/>
</g>
<defs>
<filter id="filter0_f_14_2932" x="86" y="342" width="138" height="138" filterUnits="userSpaceOnUse" color-interpolation-filters="sRGB">
<feFlood flood-opacity="0" result="BackgroundImageFix"/>
<feBlend mode="normal" in="SourceGraphic" in2="BackgroundImageFix" result="shape"/>
<feGaussianBlur stdDeviation="16" result="effect1_foregroundBlur_14_2932"/>
</filter>
<clipPath id="clip0_14_2932">
<rect width="375" height="812" fill="white"/>
</clipPath>
</defs>
</svg>
